<?xml version="1.0" encoding="UTF-8" standalone="no"?>
<!DOCTYPE svg PUBLIC "-//W3C//DTD SVG 1.1//EN"
 "http://www.w3.org/Graphics/SVG/1.1/DTD/svg11.dtd">
<!-- Generated by graphviz version 2.40.1 (0)
 -->
<!-- Title: G Pages: 1 -->
<svg width="777pt" height="600pt"
 viewBox="0.00 0.00 777.16 600.00" xmlns="http://www.w3.org/2000/svg" xmlns:xlink="http://www.w3.org/1999/xlink">
<g id="graph0" class="graph" transform="scale(1 1) rotate(0) translate(4 596)">
<title>G</title>
<polygon fill="#ffffff" stroke="transparent" points="-4,4 -4,-596 773.1569,-596 773.1569,4 -4,4"/>
<g id="clust1" class="cluster">
<title>cluster_Global</title>
<path fill="none" stroke="#c0c0c0" d="M546.1569,-8C546.1569,-8 749.1569,-8 749.1569,-8 755.1569,-8 761.1569,-14 761.1569,-20 761.1569,-20 761.1569,-572 761.1569,-572 761.1569,-578 755.1569,-584 749.1569,-584 749.1569,-584 546.1569,-584 546.1569,-584 540.1569,-584 534.1569,-578 534.1569,-572 534.1569,-572 534.1569,-20 534.1569,-20 534.1569,-14 540.1569,-8 546.1569,-8"/>
<text text-anchor="middle" x="647.6569" y="-571.2" font-family="Times,serif" font-size="11.00" fill="#c0c0c0">Global</text>
</g>
<g id="clust2" class="cluster">
<title>cluster_\ShSo</title>
<path fill="none" stroke="#c0c0c0" d="M554.1569,-16C554.1569,-16 741.1569,-16 741.1569,-16 747.1569,-16 753.1569,-22 753.1569,-28 753.1569,-28 753.1569,-544 753.1569,-544 753.1569,-550 747.1569,-556 741.1569,-556 741.1569,-556 554.1569,-556 554.1569,-556 548.1569,-556 542.1569,-550 542.1569,-544 542.1569,-544 542.1569,-28 542.1569,-28 542.1569,-22 548.1569,-16 554.1569,-16"/>
<text text-anchor="middle" x="647.6569" y="-543.2" font-family="Times,serif" font-size="11.00" fill="#c0c0c0">ShSo</text>
</g>
<g id="clust3" class="cluster">
<title>cluster_\ShSo\Lacassa</title>
<path fill="none" stroke="#c0c0c0" d="M562.1569,-24C562.1569,-24 733.1569,-24 733.1569,-24 739.1569,-24 745.1569,-30 745.1569,-36 745.1569,-36 745.1569,-516 745.1569,-516 745.1569,-522 739.1569,-528 733.1569,-528 733.1569,-528 562.1569,-528 562.1569,-528 556.1569,-528 550.1569,-522 550.1569,-516 550.1569,-516 550.1569,-36 550.1569,-36 550.1569,-30 556.1569,-24 562.1569,-24"/>
<text text-anchor="middle" x="647.6569" y="-515.2" font-family="Times,serif" font-size="11.00" fill="#c0c0c0">Lacassa</text>
</g>
<g id="clust4" class="cluster">
<title>cluster_\ShSo\Lacassa\Schema</title>
<path fill="none" stroke="#c0c0c0" d="M613.1569,-320C613.1569,-320 682.1569,-320 682.1569,-320 688.1569,-320 694.1569,-326 694.1569,-332 694.1569,-332 694.1569,-488 694.1569,-488 694.1569,-494 688.1569,-500 682.1569,-500 682.1569,-500 613.1569,-500 613.1569,-500 607.1569,-500 601.1569,-494 601.1569,-488 601.1569,-488 601.1569,-332 601.1569,-332 601.1569,-326 607.1569,-320 613.1569,-320"/>
<text text-anchor="middle" x="647.6569" y="-487.2" font-family="Times,serif" font-size="11.00" fill="#c0c0c0">Schema</text>
</g>
<g id="clust5" class="cluster">
<title>cluster_\ShSo\Lacassa\Query</title>
<path fill="none" stroke="#c0c0c0" d="M613.1569,-132C613.1569,-132 682.1569,-132 682.1569,-132 688.1569,-132 694.1569,-138 694.1569,-144 694.1569,-144 694.1569,-300 694.1569,-300 694.1569,-306 688.1569,-312 682.1569,-312 682.1569,-312 613.1569,-312 613.1569,-312 607.1569,-312 601.1569,-306 601.1569,-300 601.1569,-300 601.1569,-144 601.1569,-144 601.1569,-138 607.1569,-132 613.1569,-132"/>
<text text-anchor="middle" x="647.6569" y="-299.2" font-family="Times,serif" font-size="11.00" fill="#c0c0c0">Query</text>
</g>
<!-- \\ShSo\\Lacassa\\Schema\\Builder -->
<g id="node1" class="node">
<title>\\ShSo\\Lacassa\\Schema\\Builder</title>
<polygon fill="none" stroke="#000000" points="679.6569,-472 615.6569,-472 615.6569,-436 679.6569,-436 679.6569,-472"/>
<text text-anchor="middle" x="647.6569" y="-451.2" font-family="Courier,monospace" font-size="11.00" fill="#000000">Builder</text>
</g>
<!-- \\Illuminate\\Database\\Schema\\Builder -->
<g id="node10" class="node">
<title>\\Illuminate\\Database\\Schema\\Builder</title>
<ellipse fill="none" stroke="#000000" cx="243.0784" cy="-454" rx="184.6673" ry="18"/>
<text text-anchor="middle" x="243.0784" y="-450.3" font-family="Times,serif" font-size="14.00" fill="#c0c0c0">\Illuminate\Database\Schema\Builder</text>
</g>
<!-- \\ShSo\\Lacassa\\Schema\\Builder&#45;&gt;\\Illuminate\\Database\\Schema\\Builder -->
<g id="edge2" class="edge">
<title>\\ShSo\\Lacassa\\Schema\\Builder&#45;&gt;\\Illuminate\\Database\\Schema\\Builder</title>
<path fill="none" stroke="#000000" d="M615.5721,-454C576.293,-454 506.4983,-454 437.8582,-454"/>
<polygon fill="none" stroke="#000000" points="437.7431,-450.5001 427.7431,-454 437.743,-457.5001 437.7431,-450.5001"/>
</g>
<!-- \\ShSo\\Lacassa\\Schema\\Grammar -->
<g id="node2" class="node">
<title>\\ShSo\\Lacassa\\Schema\\Grammar</title>
<polygon fill="none" stroke="#000000" points="679.6569,-418 615.6569,-418 615.6569,-382 679.6569,-382 679.6569,-418"/>
<text text-anchor="middle" x="647.6569" y="-397.2" font-family="Courier,monospace" font-size="11.00" fill="#000000">Grammar</text>
</g>
<!-- \\Illuminate\\Database\\Schema\\Grammars\\Grammar -->
<g id="node11" class="node">
<title>\\Illuminate\\Database\\Schema\\Grammars\\Grammar</title>
<ellipse fill="none" stroke="#000000" cx="243.0784" cy="-400" rx="241.2573" ry="18"/>
<text text-anchor="middle" x="243.0784" y="-396.3" font-family="Times,serif" font-size="14.00" fill="#c0c0c0">\Illuminate\Database\SchemaGrammarsGrammar</text>
</g>
<!-- \\ShSo\\Lacassa\\Schema\\Grammar&#45;&gt;\\Illuminate\\Database\\Schema\\Grammars\\Grammar -->
<g id="edge3" class="edge">
<title>\\ShSo\\Lacassa\\Schema\\Grammar&#45;&gt;\\Illuminate\\Database\\Schema\\Grammars\\Grammar</title>
<path fill="none" stroke="#000000" d="M615.5721,-400C587.1588,-400 542.7778,-400 494.4166,-400"/>
<polygon fill="none" stroke="#000000" points="494.3686,-396.5001 484.3685,-400 494.3685,-403.5001 494.3686,-396.5001"/>
</g>
<!-- \\ShSo\\Lacassa\\Schema\\Blueprint -->
<g id="node3" class="node">
<title>\\ShSo\\Lacassa\\Schema\\Blueprint</title>
<polygon fill="none" stroke="#000000" points="686.1569,-364 609.1569,-364 609.1569,-328 686.1569,-328 686.1569,-364"/>
<text text-anchor="middle" x="647.6569" y="-343.2" font-family="Courier,monospace" font-size="11.00" fill="#000000">Blueprint</text>
</g>
<!-- \\Illuminate\\Database\\Schema\\Blueprint -->
<g id="node12" class="node">
<title>\\Illuminate\\Database\\Schema\\Blueprint</title>
<ellipse fill="none" stroke="#000000" cx="243.0784" cy="-346" rx="194.1657" ry="18"/>
<text text-anchor="middle" x="243.0784" y="-342.3" font-family="Times,serif" font-size="14.00" fill="#c0c0c0">\Illuminate\Database\Schema\Blueprint</text>
</g>
<!-- \\ShSo\\Lacassa\\Schema\\Blueprint&#45;&gt;\\Illuminate\\Database\\Schema\\Blueprint -->
<g id="edge4" class="edge">
<title>\\ShSo\\Lacassa\\Schema\\Blueprint&#45;&gt;\\Illuminate\\Database\\Schema\\Blueprint</title>
<path fill="none" stroke="#000000" d="M608.8642,-346C570.7387,-346 509.4705,-346 447.8905,-346"/>
<polygon fill="none" stroke="#000000" points="447.6071,-342.5001 437.6071,-346 447.6071,-349.5001 447.6071,-342.5001"/>
</g>
<!-- \\ShSo\\Lacassa\\Query\\Processor -->
<g id="node4" class="node">
<title>\\ShSo\\Lacassa\\Query\\Processor</title>
<polygon fill="none" stroke="#000000" points="686.1569,-284 609.1569,-284 609.1569,-248 686.1569,-248 686.1569,-284"/>
<text text-anchor="middle" x="647.6569" y="-263.2" font-family="Courier,monospace" font-size="11.00" fill="#000000">Processor</text>
</g>
<!-- \\Illuminate\\Database\\Query\\Processors\\Processor -->
<g id="node14" class="node">
<title>\\Illuminate\\Database\\Query\\Processors\\Processor</title>
<ellipse fill="none" stroke="#000000" cx="243.0784" cy="-266" rx="243.1569" ry="18"/>
<text text-anchor="middle" x="243.0784" y="-262.3" font-family="Times,serif" font-size="14.00" fill="#c0c0c0">\Illuminate\Database\Query\Processors\Processor</text>
</g>
<!-- \\ShSo\\Lacassa\\Query\\Processor&#45;&gt;\\Illuminate\\Database\\Query\\Processors\\Processor -->
<g id="edge6" class="edge">
<title>\\ShSo\\Lacassa\\Query\\Processor&#45;&gt;\\Illuminate\\Database\\Query\\Processors\\Processor</title>
<path fill="none" stroke="#000000" d="M608.8642,-266C580.8236,-266 540.2645,-266 496.27,-266"/>
<polygon fill="none" stroke="#000000" points="496.233,-262.5001 486.233,-266 496.233,-269.5001 496.233,-262.5001"/>
</g>
<!-- \\ShSo\\Lacassa\\Query\\Builder -->
<g id="node5" class="node">
<title>\\ShSo\\Lacassa\\Query\\Builder</title>
<polygon fill="none" stroke="#000000" points="679.6569,-230 615.6569,-230 615.6569,-194 679.6569,-194 679.6569,-230"/>
<text text-anchor="middle" x="647.6569" y="-209.2" font-family="Courier,monospace" font-size="11.00" fill="#000000">Builder</text>
</g>
<!-- \\Illuminate\\Database\\Query\\Builder -->
<g id="node15" class="node">
<title>\\Illuminate\\Database\\Query\\Builder</title>
<ellipse fill="none" stroke="#000000" cx="243.0784" cy="-212" rx="176.5689" ry="18"/>
<text text-anchor="middle" x="243.0784" y="-208.3" font-family="Times,serif" font-size="14.00" fill="#c0c0c0">\Illuminate\Database\Query\Builder</text>
</g>
<!-- \\ShSo\\Lacassa\\Query\\Builder&#45;&gt;\\Illuminate\\Database\\Query\\Builder -->
<g id="edge7" class="edge">
<title>\\ShSo\\Lacassa\\Query\\Builder&#45;&gt;\\Illuminate\\Database\\Query\\Builder</title>
<path fill="none" stroke="#000000" d="M615.5721,-212C574.7845,-212 501.0925,-212 429.9567,-212"/>
<polygon fill="none" stroke="#000000" points="429.9399,-208.5001 419.9398,-212 429.9398,-215.5001 429.9399,-208.5001"/>
</g>
<!-- \\ShSo\\Lacassa\\Query\\Grammar -->
<g id="node6" class="node">
<title>\\ShSo\\Lacassa\\Query\\Grammar</title>
<polygon fill="none" stroke="#000000" points="679.6569,-176 615.6569,-176 615.6569,-140 679.6569,-140 679.6569,-176"/>
<text text-anchor="middle" x="647.6569" y="-155.2" font-family="Courier,monospace" font-size="11.00" fill="#000000">Grammar</text>
</g>
<!-- \\Illuminate\\Database\\Query\\Grammars\\Grammar -->
<g id="node16" class="node">
<title>\\Illuminate\\Database\\Query\\Grammars\\Grammar</title>
<ellipse fill="none" stroke="#000000" cx="243.0784" cy="-158" rx="233.1587" ry="18"/>
<text text-anchor="middle" x="243.0784" y="-154.3" font-family="Times,serif" font-size="14.00" fill="#c0c0c0">\Illuminate\Database\QueryGrammarsGrammar</text>
</g>
<!-- \\ShSo\\Lacassa\\Query\\Grammar&#45;&gt;\\Illuminate\\Database\\Query\\Grammars\\Grammar -->
<g id="edge8" class="edge">
<title>\\ShSo\\Lacassa\\Query\\Grammar&#45;&gt;\\Illuminate\\Database\\Query\\Grammars\\Grammar</title>
<path fill="none" stroke="#000000" d="M615.5721,-158C585.6977,-158 538.1713,-158 486.9263,-158"/>
<polygon fill="none" stroke="#000000" points="486.6319,-154.5001 476.6318,-158 486.6318,-161.5001 486.6319,-154.5001"/>
</g>
<!-- \\ShSo\\Lacassa\\CassandraServiceProvider -->
<g id="node7" class="node">
<title>\\ShSo\\Lacassa\\CassandraServiceProvider</title>
<polygon fill="none" stroke="#000000" points="737.1569,-122 558.1569,-122 558.1569,-86 737.1569,-86 737.1569,-122"/>
<text text-anchor="middle" x="647.6569" y="-101.2" font-family="Courier,monospace" font-size="11.00" fill="#000000">CassandraServiceProvider</text>
</g>
<!-- \\Illuminate\\Support\\ServiceProvider -->
<g id="node9" class="node">
<title>\\Illuminate\\Support\\ServiceProvider</title>
<ellipse fill="none" stroke="#000000" cx="243.0784" cy="-104" rx="180.0681" ry="18"/>
<text text-anchor="middle" x="243.0784" y="-100.3" font-family="Times,serif" font-size="14.00" fill="#c0c0c0">\Illuminate\Support\ServiceProvider</text>
</g>
<!-- \\ShSo\\Lacassa\\CassandraServiceProvider&#45;&gt;\\Illuminate\\Support\\ServiceProvider -->
<g id="edge1" class="edge">
<title>\\ShSo\\Lacassa\\CassandraServiceProvider&#45;&gt;\\Illuminate\\Support\\ServiceProvider</title>
<path fill="none" stroke="#000000" d="M558.1188,-104C521.1946,-104 476.9065,-104 433.3626,-104"/>
<polygon fill="none" stroke="#000000" points="433.2046,-100.5001 423.2045,-104 433.2045,-107.5001 433.2046,-100.5001"/>
</g>
<!-- \\ShSo\\Lacassa\\Connection -->
<g id="node8" class="node">
<title>\\ShSo\\Lacassa\\Connection</title>
<polygon fill="none" stroke="#000000" points="689.6569,-68 605.6569,-68 605.6569,-32 689.6569,-32 689.6569,-68"/>
<text text-anchor="middle" x="647.6569" y="-47.2" font-family="Courier,monospace" font-size="11.00" fill="#000000">Connection</text>
</g>
<!-- \\Illuminate\\Database\\Connection -->
<g id="node13" class="node">
<title>\\Illuminate\\Database\\Connection</title>
<ellipse fill="none" stroke="#000000" cx="243.0784" cy="-50" rx="163.5712" ry="18"/>
<text text-anchor="middle" x="243.0784" y="-46.3" font-family="Times,serif" font-size="14.00" fill="#c0c0c0">\Illuminate\Database\Connection</text>
</g>
<!-- \\ShSo\\Lacassa\\Connection&#45;&gt;\\Illuminate\\Database\\Connection -->
<g id="edge5" class="edge">
<title>\\ShSo\\Lacassa\\Connection&#45;&gt;\\Illuminate\\Database\\Connection</title>
<path fill="none" stroke="#000000" d="M605.5048,-50C560.6553,-50 486.7359,-50 417.3119,-50"/>
<polygon fill="none" stroke="#000000" points="417.1057,-46.5001 407.1057,-50 417.1057,-53.5001 417.1057,-46.5001"/>
</g>
</g>
</svg>
